<svg width="415" height="809" viewBox="0 0 415 809" version="1.1" xmlns="http://www.w3.org/2000/svg" xmlns:xlink="http://www.w3.org/1999/xlink">
<title>Big Circles</title>
<desc>Created using Figma</desc>
<g id="Canvas" transform="translate(-2437 179)">
<g id="Big Circles" opacity="0.449445">
<g id="Oval" opacity="0.0325521">
<use xlink:href="#path0_stroke" transform="translate(2442 -174)" fill="rgb(64, 71, 73)"/>
</g>
<g id="Oval" opacity="0.0325521">
<use xlink:href="#path1_stroke" transform="translate(2643.65 27.6491)" fill="rgb(64, 71, 73)"/>
</g>
<g id="Oval" opacity="0.0325521">
<use xlink:href="#path2_stroke" transform="translate(2742.23 128.474)" fill="rgb(64, 71, 73)"/>
</g>
<g id="Oval" opacity="0.0325521">
<use xlink:href="#path3_stroke" transform="translate(2547.31 -64.2132)" fill="rgb(64, 71, 73)"/>
</g>
</g>
</g>
<defs>
<path id="path0_stroke" d="M 399.937 804.375C 623.302 804.375 804.375 623.302 804.375 399.937L 795.375 399.937C 795.375 618.331 618.331 795.375 399.937 795.375L 399.937 804.375ZM 804.375 399.937C 804.375 176.573 623.302 -4.5 399.937 -4.5L 399.937 4.5C 618.331 4.5 795.375 181.543 795.375 399.937L 804.375 399.937ZM 399.937 -4.5C 176.573 -4.5 -4.5 176.573 -4.5 399.937L 4.5 399.937C 4.5 181.543 181.543 4.5 399.937 4.5L 399.937 -4.5ZM -4.5 399.937C -4.5 623.302 176.573 804.375 399.937 804.375L 399.937 795.375C 181.543 795.375 4.5 618.331 4.5 399.937L -4.5 399.937Z"/>
<path id="path1_stroke" d="M 199.969 402.937C 312.065 402.937 402.937 312.065 402.937 199.969L 396.937 199.969C 396.937 308.752 308.752 396.937 199.969 396.937L 199.969 402.937ZM 402.937 199.969C 402.937 87.8722 312.065 -3 199.969 -3L 199.969 3C 308.752 3 396.937 91.1859 396.937 199.969L 402.937 199.969ZM 199.969 -3C 87.8722 -3 -3 87.8722 -3 199.969L 3 199.969C 3 91.1859 91.1859 3 199.969 3L 199.969 -3ZM -3 199.969C -3 312.065 87.8722 402.937 199.969 402.937L 199.969 396.937C 91.1859 396.937 3 308.752 3 199.969L -3 199.969Z"/>
<path id="path2_stroke" d="M 100.825 201.469C 157.325 201.469 203.149 156.044 203.149 99.9844L 200.149 99.9844C 200.149 154.364 155.692 198.469 100.825 198.469L 100.825 201.469ZM 203.149 99.9844C 203.149 43.9243 157.325 -1.5 100.825 -1.5L 100.825 1.5C 155.692 1.5 200.149 45.6048 200.149 99.9844L 203.149 99.9844ZM 100.825 -1.5C 44.3241 -1.5 -1.5 43.9243 -1.5 99.9844L 1.5 99.9844C 1.5 45.6048 45.9573 1.5 100.825 1.5L 100.825 -1.5ZM -1.5 99.9844C -1.5 156.044 44.3241 201.469 100.825 201.469L 100.825 198.469C 45.9573 198.469 1.5 154.364 1.5 99.9844L -1.5 99.9844Z"/>
<path id="path3_stroke" d="M 299.953 603.906C 467.822 603.906 603.906 467.822 603.906 299.953L 595.906 299.953C 595.906 463.403 463.403 595.906 299.953 595.906L 299.953 603.906ZM 603.906 299.953C 603.906 132.084 467.822 -4 299.953 -4L 299.953 4C 463.403 4 595.906 136.503 595.906 299.953L 603.906 299.953ZM 299.953 -4C 132.084 -4 -4 132.084 -4 299.953L 4 299.953C 4 136.503 136.503 4 299.953 4L 299.953 -4ZM -4 299.953C -4 467.822 132.084 603.906 299.953 603.906L 299.953 595.906C 136.503 595.906 4 463.403 4 299.953L -4 299.953Z"/>
</defs>
</svg>
