<svg width="26" height="26" viewBox="0 0 26 26" version="1.1" xmlns="http://www.w3.org/2000/svg" xmlns:xlink="http://www.w3.org/1999/xlink">
<title>linkedin_icon</title>
<desc>Created using Figma</desc>
<g id="Canvas" transform="translate(-830 -534)">
<g id="linkedin_icon">
<use xlink:href="#path0_fill" transform="translate(830 534)" fill="#34495E"/>
</g>
</g>
<defs>
<path id="path0_fill" fill-rule="evenodd" d="M 9.45359 8.27219C 8.97416 8.26881 8.54006 8.55502 8.35425 8.997C 8.16844 9.43897 8.26763 9.94938 8.60545 10.2896C 8.94327 10.6298 9.45297 10.7326 9.89624 10.5499C 10.3395 10.3672 10.6288 9.93515 10.6288 9.45571C 10.6282 8.80553 10.1037 8.27732 9.45359 8.27219ZM 8.26801 17.7268L 10.6288 17.7268L 10.6288 11.2185L 8.26801 11.2185L 8.26801 17.7268ZM 16.1616 11.2185C 14.4144 11.2185 14.1752 12.2731 14.1752 12.2731L 14.1856 11.2268L 11.8144 11.2268L 11.8144 17.7268L 14.1856 17.7268L 14.1856 14.1815C 14.1447 13.5809 14.5855 13.0552 15.184 12.9907C 15.756 12.9907 15.9536 13.519 15.9536 14.1815L 15.9536 17.7268L 18.3144 17.7268L 18.3144 14.1815C 18.3144 12.3313 17.5136 11.2185 16.1616 11.2185ZM 13 0C 5.8203 0 0 5.8203 0 13C 0 20.1797 5.8203 26 13 26C 20.1797 26 26 20.1797 26 13C 26 5.8203 20.1797 0 13 0ZM 13 24.8186C 8.21947 24.8202 3.90871 21.9418 2.07811 17.5256C 0.247515 13.1095 1.25763 8.02543 4.63739 4.64448C 8.01715 1.26354 13.1008 0.251629 17.5177 2.08067C 21.9345 3.90972 24.8144 8.21946 24.8144 13C 24.8161 16.1343 23.572 19.1407 21.3561 21.3573C 19.1403 23.574 16.1343 24.8191 13 24.8186Z"/>
</defs>
</svg>
