<svg width="26" height="26" viewBox="0 0 26 26" version="1.1" xmlns="http://www.w3.org/2000/svg" xmlns:xlink="http://www.w3.org/1999/xlink">
<title>twitter</title>
<desc>Created using Figma</desc>
<g id="Canvas" transform="translate(-784 -534)">
<g id="twitter_icon">
<use xlink:href="#path0_fill" transform="translate(784.976 534.991)" fill="#34495E"/>
</g>
</g>
<defs>
<path id="path0_fill" fill-rule="evenodd" d="M 18.2843 8.05299C 17.829 8.31852 17.3319 8.50515 16.8143 8.60499C 16.3737 8.14353 15.7624 7.88384 15.1243 7.88699C 13.8599 7.88142 12.8281 8.8976 12.8143 10.162C 12.8139 10.3364 12.834 10.5103 12.8743 10.68C 11.0242 10.5916 9.29659 9.72888 8.11434 8.30299C 7.90952 8.6493 7.80239 9.04465 7.80434 9.44699C 7.80259 10.2098 8.18629 10.9219 8.82434 11.34C 8.45991 11.3292 8.10334 11.2315 7.78434 11.055L 7.78434 11.084C 7.78821 12.1744 8.56354 13.1094 9.63434 13.315C 9.29486 13.405 8.93961 13.4183 8.59434 13.354C 8.90263 14.2881 9.77077 14.9227 10.7543 14.933C 9.93147 15.5657 8.92231 15.9081 7.88434 15.907C 7.69724 15.9071 7.51028 15.8968 7.32434 15.876C 8.38755 16.5446 9.61835 16.8986 10.8743 16.897C 12.6078 16.9235 14.2794 16.2533 15.5145 15.0367C 16.7496 13.82 17.4448 12.1587 17.4443 10.425L 17.4443 10.131C 17.8942 9.80969 18.2836 9.41119 18.5943 8.95399C 18.171 9.13784 17.7228 9.25814 17.2643 9.31099C 17.7449 9.02835 18.1071 8.58159 18.2843 8.05299ZM 12.3944 1.62548e-07C 7.38208 -0.000808791 2.8629 3.01789 0.944221 7.6484C -0.974455 12.2789 0.0852578 17.6093 3.62919 21.1538C 7.17312 24.6983 12.5033 25.7588 17.1341 23.8409C 21.7649 21.923 24.7844 17.4043 24.7844 12.392C 24.7838 5.5491 19.2373 0.00165662 12.3944 1.62548e-07ZM 12.3943 23.657C 6.1735 23.6543 1.1325 18.6095 1.13434 12.3887C 1.13618 6.16784 6.18017 1.12609 12.401 1.12701C 18.6218 1.12793 23.6643 6.17118 23.6643 12.392C 23.6651 15.3808 22.4779 18.2473 20.364 20.3602C 18.2502 22.4731 15.3831 23.6591 12.3943 23.657Z"/>
</defs>
</svg>
