<svg width="26" height="26" viewBox="0 0 26 26" version="1.1" xmlns="http://www.w3.org/2000/svg" xmlns:xlink="http://www.w3.org/1999/xlink">
<title>facebook</title>
<desc>Created using Figma</desc>
<g id="Canvas" transform="translate(-876 -534)">
<g id="facebook_icon">
<use xlink:href="#path0_fill" transform="translate(876.002 534)" fill="#34495E"/>
</g>
</g>
<defs>
<path id="path0_fill" fill-rule="evenodd" d="M 12.5884 6.40268e-07C 7.49825 -0.00161732 2.90844 3.06335 0.959416 7.76554C -0.989609 12.4677 0.0860372 17.881 3.68472 21.4808C 7.28341 25.0806 12.6963 26.158 17.3991 24.2105C 22.1019 22.263 25.1684 17.6741 25.1684 12.584C 25.1656 5.63675 19.5356 0.00496675 12.5884 6.40269e-07L 12.5884 6.40268e-07ZM 12.5884 24.024C 6.27024 24.024 1.14838 18.9021 1.14838 12.584C 1.14838 6.26584 6.27024 1.14398 12.5884 1.14398C 18.9065 1.14398 24.0284 6.26584 24.0284 12.584C 24.0289 15.6182 22.8238 18.5283 20.6783 20.6739C 18.5327 22.8194 15.6226 24.0245 12.5884 24.024ZM 13.7183 9.867C 13.7183 9.404 13.7683 9.157 14.4783 9.157L 15.4383 9.157L 15.4383 7.435L 13.9083 7.435C 12.0783 7.435 11.4383 8.296 11.4383 9.744L 11.4383 10.862L 10.2983 10.862L 10.2983 12.584L 11.4383 12.584L 11.4383 17.733L 13.7183 17.733L 13.7183 12.584L 15.2383 12.584L 15.4483 10.862L 13.7183 10.862L 13.7183 9.862L 13.7183 9.867Z"/>
</defs>
</svg>
