<svg width="367" height="367" viewBox="0 0 367 367" version="1.1" xmlns="http://www.w3.org/2000/svg" xmlns:xlink="http://www.w3.org/1999/xlink">
<title>Small Circles</title>
<desc>Created using Figma</desc>
<g id="Canvas" transform="translate(-1534 -31)">
<g id="Small Circles">
<g id="Oval" opacity="0.0325521">
<use xlink:href="#path0_stroke" transform="translate(1539 36)" fill="#34495E"/>
</g>
<g id="Oval" opacity="0.0325521">
<use xlink:href="#path1_stroke" transform="translate(1629 126)" fill="#34495E"/>
</g>
<g id="Oval" opacity="0.0325521">
<use xlink:href="#path2_stroke" transform="translate(1673 171)" fill="#34495E"/>
</g>
<g id="Oval" opacity="0.0325521">
<use xlink:href="#path3_stroke" transform="translate(1586 85)" fill="#34495E"/>
</g>
</g>
</g>
<defs>
<path id="path0_stroke" d="M 178.5 361.5C 279.568 361.5 361.5 279.568 361.5 178.5L 352.5 178.5C 352.5 274.598 274.598 352.5 178.5 352.5L 178.5 361.5ZM 361.5 178.5C 361.5 77.4319 279.568 -4.5 178.5 -4.5L 178.5 4.5C 274.598 4.5 352.5 82.4025 352.5 178.5L 361.5 178.5ZM 178.5 -4.5C 77.4319 -4.5 -4.5 77.4319 -4.5 178.5L 4.5 178.5C 4.5 82.4025 82.4025 4.5 178.5 4.5L 178.5 -4.5ZM -4.5 178.5C -4.5 279.568 77.4319 361.5 178.5 361.5L 178.5 352.5C 82.4025 352.5 4.5 274.598 4.5 178.5L -4.5 178.5Z"/>
<path id="path1_stroke" d="M 89.25 181.5C 140.198 181.5 181.5 140.198 181.5 89.25L 175.5 89.25C 175.5 136.885 136.885 175.5 89.25 175.5L 89.25 181.5ZM 181.5 89.25C 181.5 38.3017 140.198 -3 89.25 -3L 89.25 3C 136.885 3 175.5 41.6154 175.5 89.25L 181.5 89.25ZM 89.25 -3C 38.3017 -3 -3 38.3017 -3 89.25L 3 89.25C 3 41.6154 41.6154 3 89.25 3L 89.25 -3ZM -3 89.25C -3 140.198 38.3017 181.5 89.25 181.5L 89.25 175.5C 41.6154 175.5 3 136.885 3 89.25L -3 89.25Z"/>
<path id="path2_stroke" d="M 45 90.75C 70.6694 90.75 91.5 70.1109 91.5 44.625L 88.5 44.625C 88.5 68.4305 69.0362 87.75 45 87.75L 45 90.75ZM 91.5 44.625C 91.5 19.1391 70.6694 -1.5 45 -1.5L 45 1.5C 69.0362 1.5 88.5 20.8195 88.5 44.625L 91.5 44.625ZM 45 -1.5C 19.3306 -1.5 -1.5 19.1391 -1.5 44.625L 1.5 44.625C 1.5 20.8195 20.9638 1.5 45 1.5L 45 -1.5ZM -1.5 44.625C -1.5 70.1109 19.3306 90.75 45 90.75L 45 87.75C 20.9638 87.75 1.5 68.4305 1.5 44.625L -1.5 44.625Z"/>
<path id="path3_stroke" d="M 133.875 271.75C 210.021 271.75 271.75 210.021 271.75 133.875L 263.75 133.875C 263.75 205.603 205.603 263.75 133.875 263.75L 133.875 271.75ZM 271.75 133.875C 271.75 57.7287 210.021 -4 133.875 -4L 133.875 4C 205.603 4 263.75 62.147 263.75 133.875L 271.75 133.875ZM 133.875 -4C 57.7287 -4 -4 57.7287 -4 133.875L 4 133.875C 4 62.147 62.147 4 133.875 4L 133.875 -4ZM -4 133.875C -4 210.021 57.7287 271.75 133.875 271.75L 133.875 263.75C 62.147 263.75 4 205.603 4 133.875L -4 133.875Z"/>
</defs>
</svg>
