<svg width="17" height="15" viewBox="0 0 17 15" version="1.1" xmlns="http://www.w3.org/2000/svg" xmlns:xlink="http://www.w3.org/1999/xlink">
<title>Shape</title>
<desc>Created using Figma</desc>
<g id="Canvas" transform="translate(-5184 -444)">
<g id="Shape">
<use xlink:href="#path0_fill" transform="matrix(0.707107 0.707107 -0.707107 0.707107 5189.38 440.611)" fill="#34495E"/>
<use xlink:href="#path1_stroke" transform="matrix(0.707107 0.707107 -0.707107 0.707107 5189.38 440.611)" fill="#34495E"/>
</g>
</g>
<defs>
<path id="path0_fill" fill-rule="evenodd" d="M 15.239 0.314473C 15.238 0.300339 15.2359 0.286485 15.233 0.272567L 15.2296 0.259554L 15.2216 0.233552C 15.2166 0.218899 15.2106 0.204571 15.2035 0.190609L 15.1933 0.170691C 15.1785 0.145616 15.1615 0.121663 15.14 0.100127C 15.1184 0.0785914 15.0944 0.0614575 15.0694 0.0468268L 15.0495 0.0365983L 15.0181 0.0224855C 15.006 0.0179539 14.9938 0.0140049 14.9812 0.0110701L 14.9763 0.00899852L 14.9673 0.00686218L 14.9388 0.00256792C 14.9206 0.000280529 14.9025 -0.000604217 14.8839 0.000129475L 14.8614 0.00248161C 14.844 0.00442373 14.827 0.00744482 14.8105 0.0116312L 14.7896 0.0177381L 14.7788 0.0199823L 0.226689 5.32214C 0.0905678 5.37177 -0.000194213 5.50129 0.000172633 5.64598C 0.000280529 5.70823 0.0169397 5.76771 0.04687 5.81904C 0.0863383 5.88751 0.149328 5.94153 0.226754 5.96993L 6.86227 8.37799L 9.27033 15.0135C 9.30227 15.1014 9.36759 15.1701 9.4489 15.208C 9.49366 15.2285 9.54307 15.24 9.59439 15.2402C 9.73931 15.2401 9.86857 15.1498 9.91814 15.0136L 15.2202 0.461406L 15.2223 0.45107C 15.2304 0.426728 15.2355 0.40215 15.2378 0.377485L 15.2396 0.357222C 15.2404 0.342807 15.2401 0.328673 15.239 0.314473ZM 1.35278 5.64514L 13.5532 1.19957L 7.04286 7.70992L 1.35278 5.64514ZM 7.53017 8.19722L 9.59497 13.8873L 14.0405 1.68687L 7.53017 8.19722Z"/>
<path id="path1_stroke" d="M 15.233 0.272567L 15.7227 0.17159L 15.7202 0.159774L 15.7172 0.148089L 15.233 0.272567ZM 15.239 0.314473L 14.7403 0.35026L 14.7404 0.352358L 15.239 0.314473ZM 15.2296 0.259554L 15.7139 0.135077L 15.7109 0.12331L 15.7073 0.111704L 15.2296 0.259554ZM 15.2216 0.233552L 15.6994 0.0856442L 15.6949 0.0725127L 15.2216 0.233552ZM 15.2035 0.190609L 15.6498 -0.034933L 15.6481 -0.0381848L 15.2035 0.190609ZM 15.1933 0.170691L 15.6378 -0.0581023L 15.6315 -0.070435L 15.6245 -0.0823969L 15.1933 0.170691ZM 15.0694 0.0468268L 15.322 -0.384657L 15.3102 -0.391583L 15.298 -0.397851L 15.0694 0.0468268ZM 15.0495 0.0365983L 15.2781 -0.408079L 15.2665 -0.414045L 15.2546 -0.419398L 15.0495 0.0365983ZM 15.0181 0.0224855L 15.2232 -0.43351L 15.2084 -0.440187L 15.1931 -0.445884L 15.0181 0.0224855ZM 14.9812 0.0110701L 14.7842 0.470643L 14.8248 0.488029L 14.8678 0.49804L 14.9812 0.0110701ZM 14.9763 0.00899852L 15.1733 -0.450574L 15.1335 -0.467641L 15.0913 -0.477603L 14.9763 0.00899852ZM 14.9673 0.00686218L 15.0823 -0.47974L 15.0622 -0.484472L 15.0419 -0.487543L 14.9673 0.00686218ZM 14.9388 0.00256792L 15.0134 -0.491985L 15.0013 -0.493516L 14.9388 0.00256792ZM 14.8839 0.000129475L 14.8642 -0.499482L 14.848 -0.498844L 14.8319 -0.497162L 14.8839 0.000129475ZM 14.8614 0.00248161L 14.8094 -0.494823L 14.8059 -0.49443L 14.8614 0.00248161ZM 14.8105 0.0116312L 14.6877 -0.473066L 14.6787 -0.470781L 14.6698 -0.468162L 14.8105 0.0116312ZM 14.7896 0.0177381L 14.8907 0.507421L 14.9107 0.503288L 14.9303 0.497532L 14.7896 0.0177381ZM 14.7788 0.0199823L 14.6777 -0.469701L 14.6419 -0.462316L 14.6076 -0.449805L 14.7788 0.0199823ZM 0.226689 5.32214L 0.0555187 4.85235L 0.0554113 4.85239L 0.226689 5.32214ZM 0.000172633 5.64598L 0.500172 5.64511L 0.500171 5.64471L 0.000172633 5.64598ZM 0.04687 5.81904L 0.480061 5.56934L 0.478819 5.56721L 0.04687 5.81904ZM 0.226754 5.96993L 0.0545796 6.43935L 0.056186 6.43993L 0.226754 5.96993ZM 6.86227 8.37799L 7.33227 8.20742L 7.25254 7.98772L 7.03284 7.90798L 6.86227 8.37799ZM 9.27033 15.0135L 8.80033 15.1841L 8.80041 15.1843L 9.27033 15.0135ZM 9.4489 15.208L 9.23809 15.6613L 9.23995 15.6622L 9.4489 15.208ZM 9.59439 15.2402L 9.59228 15.7402L 9.59468 15.7402L 9.59439 15.2402ZM 9.91814 15.0136L 9.44835 14.8424L 9.44829 14.8426L 9.91814 15.0136ZM 15.2202 0.461406L 15.69 0.632573L 15.7028 0.597368L 15.7102 0.560644L 15.2202 0.461406ZM 15.2223 0.45107L 14.7479 0.292956L 14.7383 0.321914L 14.7322 0.351831L 15.2223 0.45107ZM 15.2378 0.377485L 15.7357 0.423224L 15.7357 0.422561L 15.2378 0.377485ZM 15.2396 0.357222L 15.7376 0.402298L 15.7384 0.393226L 15.7389 0.384129L 15.2396 0.357222ZM 13.5532 1.19957L 13.9068 1.55312L 13.382 0.729781L 13.5532 1.19957ZM 1.35278 5.64514L 1.1816 5.17535L -0.110348 5.64611L 1.18222 6.11515L 1.35278 5.64514ZM 7.04286 7.70992L 6.87231 8.17993L 7.17142 8.28847L 7.39642 8.06347L 7.04286 7.70992ZM 9.59497 13.8873L 9.12496 14.0579L 9.594 15.3505L 10.0648 14.0585L 9.59497 13.8873ZM 7.53017 8.19722L 7.17661 7.84367L 6.95161 8.06867L 7.06015 8.36778L 7.53017 8.19722ZM 14.0405 1.68687L 14.5103 1.85804L 13.687 1.33331L 14.0405 1.68687ZM 14.7433 0.373543C 14.7427 0.37078 14.7411 0.36245 14.7403 0.350259L 15.7377 0.278688C 15.7348 0.238229 15.729 0.202191 15.7227 0.17159L 14.7433 0.373543ZM 14.7454 0.384032L 14.7487 0.397044L 15.7172 0.148089L 15.7139 0.135077L 14.7454 0.384032ZM 14.744 0.381402L 14.752 0.407405L 15.7073 0.111704L 15.6992 0.0857011L 14.744 0.381402ZM 14.7573 0.416145C 14.754 0.409715 14.7509 0.402514 14.7482 0.39459L 15.6949 0.0725127C 15.6823 0.035285 15.6671 -0.000573138 15.6498 -0.034927L 14.7573 0.416145ZM 14.7487 0.399485L 14.7589 0.419403L 15.6481 -0.0381848L 15.6378 -0.0581023L 14.7487 0.399485ZM 14.7864 0.453681C 14.7698 0.437117 14.7622 0.424036 14.762 0.42378L 15.6245 -0.0823969C 15.5949 -0.132804 15.5531 -0.19379 15.4935 -0.253426L 14.7864 0.453681ZM 14.8168 0.47831C 14.8158 0.477746 14.8028 0.470095 14.7864 0.453681L 15.4935 -0.253426C 15.434 -0.312912 15.373 -0.354831 15.322 -0.384657L 14.8168 0.47831ZM 14.8209 0.481276L 14.8408 0.491504L 15.298 -0.397851L 15.2781 -0.408079L 14.8209 0.481276ZM 14.813 0.478481L 14.8444 0.492594L 15.2546 -0.419398L 15.2232 -0.43351L 14.813 0.478481ZM 14.8678 0.49804C 14.8537 0.494773 14.8447 0.491459 14.8431 0.490855L 15.1931 -0.445884C 15.1673 -0.455551 15.1338 -0.466763 15.0946 -0.4759L 14.8678 0.49804ZM 14.7794 0.468571L 14.7842 0.470643L 15.1781 -0.448502L 15.1733 -0.450574L 14.7794 0.468571ZM 14.8523 0.493464L 14.8614 0.4956L 15.0913 -0.477603L 15.0823 -0.47974L 14.8523 0.493464ZM 14.8642 0.496973L 14.8927 0.501267L 15.0419 -0.487543L 15.0134 -0.491837L 14.8642 0.496973ZM 14.9036 0.499741C 14.8931 0.500156 14.8837 0.499579 14.8764 0.498652L 15.0013 -0.493516C 14.9576 -0.499018 14.9119 -0.501364 14.8642 -0.499482L 14.9036 0.499741ZM 14.9134 0.499773L 14.9359 0.497421L 14.8319 -0.497162L 14.8094 -0.49481L 14.9134 0.499773ZM 14.9332 0.496328C 14.9261 0.498121 14.9206 0.49898 14.9169 0.499393L 14.8059 -0.49443C 14.7674 -0.490133 14.7278 -0.483232 14.6877 -0.473066L 14.9332 0.496328ZM 14.9303 0.497532L 14.9512 0.491425L 14.6698 -0.468162L 14.6489 -0.462055L 14.9303 0.497532ZM 14.8798 0.509666L 14.8907 0.507421L 14.6886 -0.471945L 14.6777 -0.469701L 14.8798 0.509666ZM 0.39786 5.79193L 14.9499 0.48977L 14.6076 -0.449805L 0.0555187 4.85235L 0.39786 5.79193ZM 0.500171 5.64471C 0.500341 5.71165 0.458664 5.76976 0.397967 5.79189L 0.0554113 4.85239C -0.277528 4.97379 -0.500729 5.29093 -0.499826 5.64725L 0.500171 5.64471ZM 0.478819 5.56721C 0.492885 5.59134 0.500125 5.61834 0.500172 5.64511L -0.499827 5.64684C -0.499564 5.79813 -0.459006 5.94408 -0.385079 6.07088L 0.478819 5.56721ZM 0.398928 5.5005C 0.432284 5.51274 0.46135 5.53689 0.480056 5.56934L -0.386316 6.06874C -0.288673 6.23814 -0.133628 6.37032 0.0545806 6.43935L 0.398928 5.5005ZM 7.03284 7.90798L 0.397322 5.49992L 0.056186 6.43993L 6.6917 8.848L 7.03284 7.90798ZM 9.74034 14.8429L 7.33227 8.20742L 6.39226 8.54856L 8.80033 15.1841L 9.74034 14.8429ZM 9.65971 14.7546C 9.69547 14.7712 9.72553 14.8022 9.74026 14.8427L 8.80041 15.1843C 8.87901 15.4006 9.03971 15.5691 9.23809 15.6613L 9.65971 14.7546ZM 9.59649 14.7402C 9.61849 14.7403 9.63945 14.7452 9.65785 14.7537L 9.23995 15.6622C 9.34786 15.7118 9.46766 15.7397 9.59228 15.7402L 9.59649 14.7402ZM 9.44829 14.8426C 9.47077 14.7808 9.52949 14.7402 9.59409 14.7402L 9.59468 15.7402C 9.94913 15.74 10.2664 15.5187 10.388 15.1846L 9.44829 14.8426ZM 14.7504 0.29024L 9.44835 14.8424L 10.3879 15.1848L 15.69 0.632573L 14.7504 0.29024ZM 14.7322 0.351831L 14.7301 0.362168L 15.7102 0.560644L 15.7123 0.550308L 14.7322 0.351831ZM 14.7399 0.331746C 14.7411 0.318003 14.744 0.304883 14.7479 0.292956L 15.6966 0.609184C 15.7168 0.548574 15.7299 0.486296 15.7357 0.423224L 14.7399 0.331746ZM 14.7416 0.312145L 14.7398 0.332408L 15.7357 0.422561L 15.7376 0.402298L 14.7416 0.312145ZM 14.7404 0.352358C 14.7402 0.348954 14.7398 0.341119 14.7403 0.330315L 15.7389 0.384129C 15.741 0.344495 15.74 0.308391 15.7375 0.276589L 14.7404 0.352358ZM 13.382 0.729781L 1.1816 5.17535L 1.52396 6.11492L 13.7244 1.66935L 13.382 0.729781ZM 7.39642 8.06347L 13.9068 1.55312L 13.1997 0.846012L 6.68931 7.35637L 7.39642 8.06347ZM 1.18222 6.11515L 6.87231 8.17993L 7.21342 7.23991L 1.52333 5.17513L 1.18222 6.11515ZM 10.065 13.7168L 8.00018 8.02666L 7.06015 8.36778L 9.12496 14.0579L 10.065 13.7168ZM 13.5707 1.51569L 9.12518 13.7162L 10.0648 14.0585L 14.5103 1.85804L 13.5707 1.51569ZM 7.88372 8.55077L 14.3941 2.04042L 13.687 1.33331L 7.17661 7.84367L 7.88372 8.55077Z"/>
</defs>
</svg>
